# xmcd
#
# Track frame offsets:
#  150
#  13009
#  26571
#  38776
#  49343
#  61426
#  72878
#  85181
#  96018
#  106715
#  120826
#  134640
#  144385
#  155271
#  166903
#  178851
#  193155
#  206394
#
# Disc length: 2944 seconds
#
# Revision: 0
# Processed by: cddbd v1.4PL0 Copyright (c) Steve Scherf et al.
# Submitted via: AltoMP3_Maker 3.0
#
DISCID=f00b7e12
DTITLE=Various Artist - Blues on The Way
DYEAR=1900
DGENRE=
TTITLE0=I'm Your Hoochie Coochie Man
TTITLE1=I'm a man
TTITLE2=You Shook Me
TTITLE3=Mona (I Need You Baby)
TTITLE4=Johnny B. Goode
TTITLE5=Rock'n'Roll The Music
TTITLE6=Spoonful
TTITLE7=Madison Blues
TTITLE8=Tell Mama
TTITLE9=Help Me
TTITLE10=Walkin the Blues
TTITLE11=29 Ways
TTITLE12=Little Red Rooster
TTITLE13=Bring it on Home
TTITLE14=My Babe
TTITLE15=Sad Hour
TTITLE16=Walkin' the Boogie
TTITLE17=Sugar Mama
EXTD=
EXTT0=
EXTT1=
EXTT2=
EXTT3=
EXTT4=
EXTT5=
EXTT6=
EXTT7=
EXTT8=
EXTT9=
EXTT10=
EXTT11=
EXTT12=
EXTT13=
EXTT14=
EXTT15=
EXTT16=
EXTT17=
PLAYORDER=
